<?xml version="1.0" standalone="no"?>
<!DOCTYPE svg PUBLIC "-//W3C//DTD SVG 20010904//EN"
 "http://www.w3.org/TR/2001/REC-SVG-20010904/DTD/svg10.dtd">
<svg version="1.0" xmlns="http://www.w3.org/2000/svg"
 width="1280.000000pt" height="640.000000pt" viewBox="0 0 1280.000000 640.000000"
 preserveAspectRatio="xMidYMid meet">
<g transform="translate(0.000000,640.000000) scale(0.100000,-0.100000)"
fill="#ffffff" stroke="none">
<path d="M4865 6350 c-44 -3 -93 -11 -110 -17 -16 -6 -100 -14 -185 -17 -137
-5 -222 -14 -312 -32 -19 -4 -28 -12 -28 -25 0 -25 -5 -26 -127 -42 -57 -8
-106 -16 -109 -20 -22 -21 45 -46 171 -63 54 -7 113 -33 135 -59 10 -13 11
-23 1 -56 -7 -23 -11 -42 -9 -44 2 -1 13 -8 26 -14 32 -17 27 -29 -13 -37 -43
-8 -46 -24 -5 -24 36 0 41 -25 8 -35 -13 -4 -35 -19 -50 -33 -27 -24 -28 -30
-28 -117 0 -107 22 -195 48 -195 9 0 32 -9 50 -20 56 -34 89 -25 134 36 13 17
53 63 89 103 l66 72 100 23 c72 16 112 31 148 56 52 35 296 120 347 120 26 0
28 3 28 40 0 45 26 78 78 99 23 10 28 18 28 47 0 32 10 47 37 57 5 1 3 15 -4
29 -18 41 -7 54 68 77 98 30 111 43 42 39 -33 -2 -62 2 -71 9 -8 7 -53 21
-101 33 -92 21 -269 25 -452 10z"/>
<path d="M3900 6329 c-48 -12 -319 -37 -341 -32 -10 3 -31 -4 -48 -16 -16 -12
-39 -21 -50 -21 -16 0 -21 -6 -21 -25 0 -27 30 -48 54 -39 9 3 23 3 32 0 12
-5 14 -9 5 -20 -9 -11 3 -14 71 -18 46 -3 88 -3 93 1 6 3 18 4 27 3 9 -2 66
19 125 47 102 47 180 72 283 92 25 5 61 12 80 15 34 7 34 7 10 14 -35 11 -277
10 -320 -1z"/>
<path d="M3331 6231 c-17 -11 -7 -41 14 -41 9 0 15 9 15 25 0 27 -6 30 -29 16z"/>
<path d="M3150 6221 c0 -13 82 -31 99 -21 11 6 5 11 -25 19 -47 13 -74 14 -74
2z"/>
<path d="M2918 6209 c-19 -10 -24 -29 -9 -29 5 0 19 9 32 20 26 21 9 28 -23 9z"/>
<path d="M2635 6159 c-22 -5 -44 -14 -49 -19 -11 -11 31 -49 56 -50 9 0 30 -8
46 -17 28 -16 33 -16 84 0 30 9 78 17 106 17 55 0 73 13 50 37 -13 13 -19 12
-49 -6 -42 -26 -55 -26 -113 0 -32 14 -46 25 -42 35 6 16 -26 17 -89 3z"/>
<path d="M8705 6143 c-23 -26 -33 -29 -123 -34 -53 -4 -121 -12 -150 -19 -44
-10 -53 -15 -49 -30 6 -23 -11 -30 -75 -30 -50 0 -51 0 -34 -19 10 -11 27 -21
39 -23 11 -2 22 -8 24 -14 7 -20 -27 -24 -64 -9 -40 17 -103 20 -103 5 0 -5 7
-10 15 -10 21 0 19 -26 -2 -34 -10 -4 -28 2 -45 14 -16 12 -33 18 -39 14 -8
-4 -6 -10 6 -16 9 -6 23 -25 31 -44 14 -34 35 -42 63 -25 8 5 20 7 28 4 21 -8
15 -33 -8 -33 -17 0 -20 -5 -16 -21 8 -30 -13 -68 -40 -76 -33 -8 -51 11 -35
37 17 28 15 38 -14 74 -53 65 -84 109 -84 120 0 7 -17 20 -37 29 -36 16 -39
16 -50 0 -7 -9 -13 -25 -13 -34 0 -10 -4 -20 -10 -24 -18 -11 13 -56 52 -76
35 -18 49 -41 30 -53 -4 -3 -47 8 -96 25 -98 33 -166 38 -166 14 0 -20 -30
-32 -40 -15 -6 10 -16 10 -46 0 -22 -6 -52 -16 -69 -21 -24 -7 -33 -6 -42 7
-11 16 -17 15 -75 -5 -35 -13 -76 -32 -91 -42 -33 -24 -62 -21 -62 6 -1 29
-13 45 -36 45 -23 0 -25 -27 -5 -56 18 -24 4 -44 -25 -37 -27 7 -69 -16 -80
-44 -8 -21 -14 -23 -51 -18 -24 3 -37 2 -30 -1 14 -7 17 -44 3 -44 -5 0 -30 9
-55 19 -34 15 -50 29 -65 61 -24 51 -18 55 69 41 49 -8 70 -7 96 4 60 25 43
41 -73 69 -188 46 -248 64 -246 75 4 17 -66 32 -90 19 -11 -5 -38 -8 -61 -5
-27 4 -74 -2 -136 -18 -128 -32 -170 -51 -170 -74 0 -10 -25 -44 -55 -75 -30
-30 -55 -64 -55 -74 0 -27 -35 -56 -60 -49 -60 16 -157 -59 -147 -112 20 -97
25 -106 64 -116 18 -4 36 1 62 19 47 33 66 33 84 -1 8 -16 21 -41 30 -57 19
-36 13 -52 -25 -65 -17 -6 -32 -11 -33 -11 -2 0 -6 16 -9 35 -8 41 -19 50 -46
35 -29 -15 -36 -56 -16 -97 21 -45 10 -60 -52 -69 -57 -8 -92 -28 -92 -53 0
-23 -26 -46 -73 -66 -21 -9 -40 -22 -44 -31 -7 -19 -56 -44 -87 -44 -15 0 -26
-6 -28 -17 -2 -14 -13 -17 -56 -14 -63 3 -67 -11 -11 -39 51 -27 84 -91 73
-145 -11 -62 -24 -67 -138 -62 -56 3 -105 7 -111 8 -5 2 -21 -1 -33 -5 -22 -7
-23 -12 -18 -51 5 -30 1 -59 -11 -96 -14 -43 -16 -63 -9 -97 10 -41 11 -42 43
-36 29 6 34 3 54 -30 11 -20 23 -36 26 -36 3 0 16 8 29 19 13 10 41 22 61 26
51 9 97 39 112 72 43 96 60 119 100 141 30 18 44 32 48 54 7 37 44 54 88 40
23 -7 39 -4 67 9 20 11 39 23 43 29 13 20 54 10 72 -17 30 -50 96 -113 129
-123 37 -12 108 -86 101 -103 -3 -7 -8 -20 -12 -29 -11 -27 12 -22 30 6 13 20
14 29 4 47 -10 19 -9 25 9 39 20 17 20 17 -11 34 -92 49 -125 78 -158 141 -23
43 -23 44 -5 64 11 12 23 21 27 21 5 0 25 -23 46 -51 27 -35 64 -67 123 -103
83 -51 85 -53 90 -96 7 -52 25 -90 44 -90 18 0 46 -33 46 -54 0 -30 30 -30 61
0 l29 28 -25 26 c-13 14 -26 37 -27 50 -3 21 1 25 21 22 13 -1 32 5 43 14 27
25 64 5 73 -38 13 -60 47 -128 64 -128 9 0 31 -9 50 -21 31 -18 35 -19 51 -4
18 16 64 13 76 -6 8 -13 38 -11 70 6 45 23 73 19 80 -11 11 -42 -3 -119 -30
-173 -36 -69 -54 -80 -130 -74 -36 3 -78 0 -99 -6 -33 -11 -45 -9 -166 39
l-130 52 -38 -19 c-34 -16 -38 -23 -41 -60 -4 -49 -27 -63 -64 -39 -13 8 -42
17 -64 21 -26 4 -51 16 -65 32 -31 33 -71 53 -106 53 -17 1 -43 14 -66 33 -37
32 -38 33 -24 67 12 28 12 42 2 70 -11 34 -13 35 -70 38 -31 2 -81 -4 -109
-12 -28 -8 -85 -17 -127 -20 -80 -4 -121 -19 -153 -55 -16 -18 -26 -20 -80
-15 -41 4 -66 12 -77 25 -16 17 -17 16 -34 -21 -12 -26 -36 -52 -70 -76 -58
-39 -75 -67 -75 -120 0 -28 -10 -45 -47 -85 -25 -27 -56 -52 -68 -55 -26 -7
-102 -93 -110 -127 -4 -14 -18 -35 -31 -48 -13 -12 -24 -29 -24 -36 0 -8 -9
-32 -21 -55 -14 -27 -19 -49 -14 -67 3 -14 8 -39 10 -56 3 -16 7 -44 11 -61 6
-32 -29 -159 -48 -170 -5 -3 -3 -12 3 -21 7 -8 13 -38 14 -66 1 -39 6 -53 21
-61 41 -23 103 -96 120 -144 21 -53 41 -73 153 -150 l73 -51 45 20 c49 21 126
25 168 9 23 -9 39 -5 99 24 128 60 208 54 243 -18 16 -35 18 -36 74 -36 84 0
109 -23 109 -101 0 -33 -7 -76 -15 -96 -23 -54 -19 -69 36 -148 58 -85 132
-261 119 -285 -5 -9 -3 -29 6 -49 23 -55 21 -66 -43 -236 -9 -22 -15 -67 -14
-101 1 -52 9 -78 57 -180 51 -106 58 -128 62 -199 4 -67 11 -93 42 -155 77
-155 92 -191 86 -214 -6 -23 16 -80 34 -91 5 -3 40 1 77 10 37 8 84 14 103 14
47 -2 123 22 160 49 17 13 58 58 92 100 33 42 67 81 75 86 21 12 43 69 43 114
0 41 17 63 77 98 26 14 34 26 39 61 3 24 1 63 -5 88 -6 24 -11 51 -11 61 0 23
114 129 171 159 25 13 51 30 57 38 7 8 15 54 18 103 6 81 4 99 -26 203 -41
146 -41 181 -2 266 34 72 154 218 244 296 91 80 227 327 228 413 0 36 -1 38
-26 32 -15 -4 -40 -9 -58 -12 -17 -3 -66 -15 -109 -26 l-78 -21 -24 23 c-14
13 -25 34 -25 47 0 17 -30 55 -99 126 -74 76 -102 113 -111 144 -7 23 -24 52
-36 64 -17 16 -24 34 -24 59 0 26 -15 63 -49 123 -49 84 -111 221 -111 243 0
6 10 14 22 17 26 7 82 -47 124 -120 15 -27 37 -61 49 -78 12 -16 27 -52 34
-80 9 -34 26 -64 57 -97 24 -26 44 -52 44 -59 0 -6 16 -29 36 -51 33 -37 42
-76 16 -70 -8 1 -5 -9 7 -25 10 -16 27 -52 36 -81 9 -29 24 -56 33 -59 8 -4
32 3 53 15 21 12 50 22 64 22 23 0 44 8 85 32 8 5 41 21 72 35 31 15 61 37 66
49 7 13 27 26 57 34 28 8 53 22 62 37 8 12 21 23 27 23 20 0 66 54 66 78 0 11
6 25 13 29 6 4 18 19 26 33 8 14 19 33 25 42 14 24 -34 74 -80 83 -34 6 -64
43 -64 80 0 23 -13 18 -50 -20 -60 -61 -140 -68 -140 -11 0 33 -17 53 -31 39
-10 -10 -17 -9 -31 4 -10 9 -18 22 -18 29 0 6 -18 36 -40 65 -45 60 -49 80
-20 109 31 31 68 26 88 -11 28 -52 72 -99 113 -120 41 -20 94 -25 104 -9 13
21 54 10 67 -17 17 -36 86 -52 258 -60 l125 -5 40 -38 c22 -21 55 -45 73 -55
28 -13 33 -21 28 -40 -5 -18 1 -29 26 -48 35 -28 55 -25 69 9 19 53 49 13 49
-66 0 -45 54 -207 115 -345 32 -71 63 -148 70 -170 18 -60 39 -67 74 -25 17
19 30 40 31 46 0 6 6 17 14 24 12 9 14 38 13 133 -1 112 0 123 18 132 27 14
148 134 168 167 9 14 26 29 37 33 13 4 20 15 20 30 0 34 28 58 60 52 34 -7
101 8 111 25 12 19 40 -1 53 -38 15 -40 36 -68 63 -83 12 -6 20 -17 17 -24 -2
-7 7 -24 21 -37 20 -19 25 -33 25 -72 0 -61 17 -70 68 -34 21 14 43 26 50 26
17 0 98 -273 86 -292 -3 -5 -7 -35 -10 -67 -4 -54 -3 -60 17 -66 11 -4 38 -34
59 -67 31 -49 37 -67 33 -94 -5 -30 -1 -39 39 -77 62 -57 108 -91 108 -77 0 6
-9 28 -20 50 -11 22 -20 56 -20 77 0 34 -7 45 -75 110 -44 41 -75 79 -75 91 0
11 -7 25 -16 32 -31 27 -35 48 -20 108 8 31 17 69 21 85 7 32 40 37 50 7 3
-11 12 -20 19 -20 7 0 36 -24 63 -52 28 -29 59 -58 69 -64 11 -6 21 -24 24
-40 l5 -29 45 48 c24 26 49 47 56 47 23 0 54 46 54 81 0 67 -20 106 -91 185
-114 125 -120 156 -46 219 57 49 117 45 117 -7 0 -10 5 -18 10 -18 6 0 10 9
10 20 0 20 30 38 75 45 11 2 44 15 72 29 29 14 57 26 62 26 5 0 31 23 58 51
51 53 94 150 107 240 6 43 5 46 -15 45 -20 -1 -23 4 -24 39 -1 32 -11 53 -44
95 -24 30 -59 65 -77 78 -33 22 -34 24 -19 51 8 16 26 43 41 60 l26 31 -36 0
c-20 0 -45 -5 -56 -12 -16 -10 -23 -8 -44 15 -14 15 -32 27 -41 27 -35 0 -26
30 24 80 61 61 85 63 89 7 4 -42 8 -44 34 -20 23 20 80 22 102 4 9 -7 16 -26
16 -42 0 -25 5 -30 41 -39 22 -6 42 -19 45 -28 3 -9 12 -29 20 -44 8 -14 14
-40 14 -57 0 -36 22 -41 70 -16 55 28 27 104 -57 160 -64 43 -72 59 -44 89 11
12 21 34 21 48 0 65 41 109 81 88 52 -29 99 69 99 207 0 65 -4 77 -48 159 -63
116 -137 169 -181 130 -17 -15 -20 -15 -34 -1 -9 8 -22 15 -31 15 -8 0 -18 5
-21 10 -3 6 -14 10 -24 10 -10 0 -24 7 -31 15 -10 12 -8 20 9 41 11 14 23 42
26 63 11 63 26 91 54 99 33 9 264 7 313 -3 21 -4 46 -4 55 0 17 6 17 7 1 16
-20 11 -23 44 -8 83 15 39 73 37 117 -6 27 -26 35 -29 48 -18 8 7 14 24 13 39
-4 38 27 40 50 2 18 -29 18 -34 2 -95 -9 -35 -21 -71 -28 -79 -28 -34 -3 -72
120 -186 66 -61 123 -111 127 -111 12 0 6 162 -7 186 -6 12 -9 24 -6 27 10 10
-64 77 -85 77 -22 0 -35 19 -45 67 -7 29 -5 32 29 43 27 9 39 9 50 0 10 -9 19
-8 38 5 19 12 30 13 51 5 15 -5 29 -10 30 -10 2 0 15 18 30 41 16 24 43 48 67
58 l39 18 -50 23 c-50 24 -59 33 -39 45 5 4 14 18 19 31 9 22 14 24 52 18 24
-3 62 -15 85 -26 23 -10 57 -22 76 -25 l35 -5 -7 33 c-7 33 -8 34 -81 47 -41
8 -158 35 -260 62 -169 44 -425 88 -438 76 -3 -3 1 -13 9 -22 12 -15 8 -16
-41 -10 -30 3 -116 9 -190 12 -109 5 -139 9 -155 24 -29 25 -54 30 -215 40
-82 5 -164 15 -188 24 -23 8 -95 20 -160 25 -153 14 -147 14 -132 -4 24 -29 2
-36 -96 -29 -83 6 -94 5 -94 -10 0 -9 -8 -16 -19 -16 -25 0 -99 34 -132 61
-15 11 -55 27 -90 35 -83 17 -99 17 -99 -1 0 -12 -14 -15 -69 -15 -39 0 -73 5
-76 10 -3 6 -36 10 -73 10 -50 0 -76 5 -100 20 l-34 21 -32 -21 c-34 -20 -96
-28 -96 -11 0 5 19 20 43 33 23 13 42 30 42 38 0 21 -68 38 -151 39 -51 1 -75
5 -84 16 -8 10 -31 15 -71 15 -51 0 -61 -4 -84 -27z m-2007 -434 c2 -10 -20
-32 -58 -58 -59 -42 -60 -43 -60 -91 0 -54 18 -80 53 -80 12 1 56 7 97 14 84
15 110 11 110 -14 0 -29 -22 -38 -88 -37 -71 0 -94 -12 -68 -38 18 -18 19 -25
10 -49 -7 -19 -27 -20 -53 -4 -35 21 -53 3 -49 -49 3 -46 2 -48 -34 -67 -32
-18 -39 -19 -62 -7 -22 12 -31 11 -75 -8 -59 -25 -74 -26 -91 -6 -11 13 -15
13 -40 0 -38 -20 -47 -3 -19 35 17 23 31 30 55 30 18 0 34 4 36 8 2 5 17 15
33 23 21 10 30 22 30 39 1 40 14 66 40 80 31 17 31 27 0 52 -33 26 -33 69 1
113 14 19 41 39 60 45 23 8 36 20 40 36 4 13 16 31 28 40 28 19 100 15 104 -7z
m576 -817 c2 -4 -9 -26 -24 -49 l-29 -42 52 -26 c51 -27 147 -110 147 -129 0
-52 -120 -63 -216 -21 -55 25 -57 25 -118 9 -33 -9 -66 -20 -73 -25 -13 -11
-82 4 -114 24 -39 24 -18 97 53 192 31 42 35 45 68 39 44 -7 50 -11 50 -33 0
-10 8 -26 19 -35 15 -14 23 -15 45 -5 20 9 23 15 15 26 -17 19 14 60 54 72 41
12 65 13 71 3z m534 -25 c27 -20 8 -69 -28 -71 -13 0 -28 -9 -33 -18 -9 -13
-2 -25 41 -63 29 -26 52 -53 52 -60 0 -8 9 -11 24 -8 18 4 29 -2 41 -21 20
-30 13 -46 -21 -46 -31 0 -30 -7 5 -45 21 -21 30 -42 32 -70 4 -53 -2 -61 -52
-69 -32 -5 -49 -2 -76 14 -19 11 -40 20 -48 20 -8 0 -21 10 -29 22 -13 19 -14
25 -2 42 7 12 16 35 19 52 5 28 0 37 -54 90 -36 36 -59 67 -59 80 0 12 -7 24
-15 28 -33 12 -12 61 40 90 17 9 45 28 63 41 29 21 37 22 60 13 15 -7 33 -16
40 -21z"/>
<path d="M3277 6153 c-4 -3 -7 -13 -7 -21 0 -9 -7 -24 -17 -34 -27 -30 7 -22
40 10 l29 27 17 -22 c27 -33 91 -46 169 -34 37 5 79 7 93 4 15 -2 29 0 33 5 9
15 -46 24 -117 20 -55 -3 -62 -1 -59 15 3 19 -14 22 -51 8 -19 -7 -35 -5 -63
10 -40 20 -56 23 -67 12z"/>
<path d="M3116 6128 c-19 -27 -7 -38 46 -38 31 0 36 3 31 18 -7 21 -32 42 -49
42 -7 0 -20 -10 -28 -22z"/>
<path d="M2357 6036 c-9 -13 -33 -30 -54 -36 -66 -22 -76 -29 -62 -46 17 -20
70 -11 126 22 23 13 44 24 47 24 14 0 4 -36 -19 -76 l-25 -43 22 -12 c13 -7
28 -19 34 -28 11 -14 16 -13 50 1 67 29 196 37 264 18 48 -14 63 6 66 89 2 39
-1 71 -6 71 -5 0 -25 -14 -45 -31 -32 -29 -37 -30 -53 -16 -9 8 -39 18 -65 22
-44 7 -87 35 -87 57 0 4 -40 8 -89 8 -83 0 -90 -2 -104 -24z"/>
<path d="M2993 6020 c-3 -11 -14 -20 -24 -20 -17 0 -18 -3 -7 -20 16 -25 18
-25 79 1 34 15 49 27 49 40 0 16 -8 19 -46 19 -37 0 -47 -4 -51 -20z"/>
<path d="M3175 6032 c-5 -4 -16 -15 -23 -24 -12 -15 -9 -16 43 -3 76 17 94 35
35 35 -25 0 -49 -4 -55 -8z"/>
<path d="M3340 6013 c-73 -31 -120 -103 -67 -103 36 0 54 -16 41 -37 -16 -28
-133 -103 -149 -97 -19 8 -19 28 0 44 21 18 19 29 -10 40 -24 9 -31 35 -28
108 1 10 -6 9 -25 -4 -14 -9 -41 -26 -59 -37 -19 -11 -39 -31 -44 -45 -8 -21
-13 -23 -44 -18 -41 8 -90 -14 -98 -44 -5 -18 -13 -20 -87 -20 -65 0 -90 4
-115 20 -35 22 -81 16 -111 -14 -12 -12 -37 -16 -104 -16 -86 0 -120 12 -89
31 7 4 11 10 8 13 -9 9 -155 36 -216 39 -34 2 -69 9 -77 16 -10 8 -21 9 -33 3
-26 -13 -136 -33 -180 -32 -21 1 -62 -4 -92 -11 -47 -11 -57 -10 -83 6 -20 12
-65 20 -137 26 -124 10 -213 24 -265 42 -45 16 -142 -1 -296 -50 -52 -17 -114
-34 -137 -38 -41 -6 -42 -8 -45 -48 l-3 -42 -55 0 c-79 -1 -160 -24 -160 -47
0 -15 9 -18 55 -18 47 0 55 -3 55 -19 0 -26 -18 -38 -65 -44 -131 -17 -224
-57 -251 -108 -14 -28 -14 -29 11 -29 18 0 25 -5 25 -19 0 -14 10 -21 38 -28
20 -5 37 -15 37 -22 0 -9 -65 -39 -167 -79 -92 -36 -166 -67 -164 -70 10 -9
230 60 280 88 30 17 78 35 108 40 81 13 128 35 128 60 0 11 6 22 13 24 6 2 40
12 75 21 66 19 83 17 57 -8 -8 -9 -15 -18 -15 -20 0 -7 73 10 123 29 41 16 51
17 80 5 17 -7 59 -19 91 -26 85 -19 99 -39 92 -137 l-5 -77 27 -3 26 -3 1 -93
c0 -92 -10 -123 -35 -107 -21 13 -9 -32 15 -55 31 -29 31 -29 -1 -112 -17 -41
-45 -88 -75 -122 -27 -30 -58 -76 -70 -103 -11 -26 -28 -56 -37 -67 -21 -23
-23 -55 -10 -184 11 -101 11 -102 45 -123 48 -30 60 -54 68 -139 4 -41 13 -89
20 -106 11 -27 11 -35 0 -52 -13 -17 -10 -23 26 -57 28 -28 39 -48 39 -70 1
-19 13 -44 35 -70 38 -44 45 -34 16 23 -10 20 -22 53 -26 72 -4 19 -23 73 -41
120 -38 96 -37 142 5 148 34 5 48 -13 54 -70 5 -36 17 -68 42 -103 21 -31 35
-63 35 -82 0 -23 16 -49 61 -104 l61 -72 -6 -68 -7 -67 44 -31 c46 -34 64 -44
177 -104 74 -39 100 -44 162 -32 34 7 40 4 90 -44 41 -38 70 -55 119 -71 35
-11 72 -20 82 -20 11 0 24 -13 32 -33 8 -19 21 -39 29 -47 9 -7 16 -23 16 -36
0 -31 96 -123 129 -124 14 0 35 -9 47 -21 24 -22 44 -19 44 8 0 9 7 25 17 35
15 16 15 18 0 18 -9 0 -27 -5 -40 -11 -30 -14 -67 7 -97 56 -24 39 -25 75 -4
161 16 61 16 66 -1 84 -15 17 -31 20 -102 20 -58 0 -85 4 -88 13 -3 6 4 37 16
67 12 30 32 83 45 117 l23 61 -26 6 c-14 4 -40 2 -59 -4 -27 -9 -36 -19 -45
-51 -15 -49 -19 -52 -98 -73 -78 -22 -101 -16 -139 31 -58 75 -64 125 -27 233
14 40 25 86 25 101 0 46 8 55 105 119 100 66 107 67 198 45 22 -6 34 -2 52 15
29 28 126 35 162 13 13 -7 33 -11 46 -8 16 4 29 -1 47 -20 21 -23 24 -34 22
-84 -3 -50 0 -63 21 -87 l24 -28 13 24 c9 17 11 51 6 124 l-7 101 46 52 c25
28 78 73 118 99 105 69 147 111 147 149 0 19 8 39 20 50 11 10 22 26 25 36 4
11 13 19 20 19 8 0 30 17 50 38 34 38 42 41 172 78 7 2 10 10 7 18 -3 9 3 31
15 49 17 28 37 40 103 65 104 39 138 48 138 33 0 -6 -9 -16 -20 -23 -50 -32 1
-38 57 -8 21 11 43 20 50 20 6 0 24 5 40 12 l28 12 -44 5 c-32 4 -49 13 -64
32 l-19 27 26 44 c39 67 14 76 -85 32 -33 -15 -63 -24 -67 -19 -9 9 57 65 77
65 8 0 23 8 34 18 15 14 45 18 151 23 116 5 137 9 183 32 96 49 99 27 8 -63
-36 -35 -65 -68 -65 -72 0 -4 19 -8 43 -8 40 0 109 -19 123 -33 15 -14 34 17
34 54 0 32 -3 39 -20 39 -33 0 -53 42 -41 85 5 21 17 45 26 54 13 16 13 22 -1
64 -9 26 -20 47 -25 47 -4 0 -25 14 -44 32 -29 25 -36 37 -31 57 3 14 0 54 -5
88 l-11 62 -50 -35 c-60 -41 -89 -50 -117 -34 -24 12 -29 68 -9 88 9 9 9 12 0
12 -6 0 -24 14 -39 30 -25 28 -30 30 -104 30 l-77 0 -23 -47 c-12 -27 -35 -62
-51 -79 -26 -28 -28 -34 -17 -52 20 -32 -5 -76 -62 -112 -27 -16 -60 -32 -75
-36 -26 -7 -34 -20 -53 -89 -8 -30 -19 -45 -45 -59 -39 -21 -50 -17 -64 23 -7
21 -6 41 7 80 18 51 18 51 -3 51 -28 1 -98 33 -139 64 -17 13 -48 26 -67 28
-32 3 -35 6 -38 37 -2 19 -10 40 -19 46 -28 21 29 69 157 135 65 33 122 64
125 69 3 6 29 17 58 25 28 8 74 29 100 46 26 16 52 30 57 30 6 0 10 5 10 11 0
8 12 10 35 6 19 -3 37 -1 40 4 4 5 15 9 26 9 29 0 79 28 79 44 0 7 6 19 14 26
8 6 16 24 18 38 3 27 4 27 84 30 l81 3 47 -44 c25 -24 46 -52 46 -61 0 -9 -14
-25 -32 -34 -18 -9 -43 -29 -57 -44 -14 -16 -31 -28 -39 -28 -7 0 3 -20 24
-45 25 -30 52 -49 83 -60 66 -22 73 -20 53 14 -23 40 -10 48 33 21 l37 -23 24
24 24 24 -27 39 -28 38 24 19 24 20 32 -31 31 -30 44 23 c24 12 45 28 48 35 4
13 -55 52 -81 52 -24 0 -32 26 -17 55 15 28 0 55 -30 55 -10 0 -23 7 -30 15
-7 8 -21 15 -31 15 -10 0 -33 16 -51 35 -32 34 -34 35 -124 37 -76 2 -96 -1
-133 -20 -47 -25 -67 -21 -51 9 13 23 0 24 -50 2z"/>
<path d="M3517 5813 c-12 -11 -8 -23 7 -23 7 0 19 7 26 15 10 12 9 15 -7 15
-11 0 -23 -3 -26 -7z"/>
<path d="M5132 5723 c-15 -6 -6 -23 14 -23 8 0 31 -16 51 -36 39 -40 52 -40
160 -7 55 17 73 38 51 59 -10 10 -33 10 -101 2 -65 -7 -96 -7 -113 1 -26 12
-41 13 -62 4z"/>
<path d="M3136 5682 c-20 -21 -36 -41 -36 -45 0 -12 30 -7 56 9 20 14 30 15
50 5 64 -29 71 -4 10 38 l-43 30 -37 -37z"/>
<path d="M3410 5690 c-22 -14 0 -30 28 -19 12 4 22 13 22 19 0 13 -30 13 -50
0z"/>
<path d="M5677 5382 c-18 -19 -27 -39 -27 -60 0 -34 29 -72 55 -72 17 0 35
-30 35 -59 0 -14 -6 -21 -20 -21 -15 0 -20 -7 -20 -25 0 -14 -6 -25 -12 -25
-7 0 -4 -7 7 -16 20 -15 20 -15 -3 -32 -31 -24 -17 -35 19 -16 18 9 51 14 87
12 63 -2 82 5 82 31 0 9 6 23 12 29 10 10 8 14 -9 18 -11 3 -36 29 -54 57 -18
29 -43 65 -56 80 -21 26 -22 30 -7 51 14 22 13 24 -11 30 -16 4 -25 13 -25 26
0 28 -22 25 -53 -8z"/>
<path d="M5554 5235 c-9 -14 -25 -25 -36 -25 -16 0 -18 -5 -13 -34 5 -25 3
-35 -9 -39 -20 -8 -21 -23 -1 -31 16 -6 106 23 117 39 4 6 8 20 8 33 0 12 6
31 13 42 10 17 9 22 -3 30 -27 17 -59 11 -76 -15z"/>
<path d="M3546 4851 c-19 -21 -12 -28 13 -12 7 5 12 14 9 21 -2 7 -10 4 -22
-9z"/>
<path d="M6310 4456 c0 -6 68 -36 81 -36 5 0 9 8 9 18 0 13 -10 18 -45 20 -25
1 -45 0 -45 -2z"/>
<path d="M10742 3825 c-13 -29 -15 -55 -6 -79 17 -43 48 15 38 70 -7 41 -17
43 -32 9z"/>
<path d="M2423 3733 c5 -4 34 -17 65 -28 53 -18 58 -23 71 -63 l13 -43 62 7
c56 6 104 24 64 24 -9 0 -37 17 -62 39 -43 38 -75 49 -181 66 -22 4 -36 3 -32
-2z"/>
<path d="M2338 3716 c-20 -15 -23 -26 -8 -26 5 0 14 9 20 20 12 23 11 24 -12
6z"/>
<path d="M10320 3587 c-31 -15 -33 -41 -3 -45 14 -2 26 4 33 18 16 29 1 42
-30 27z"/>
<path d="M2783 3561 c-8 -21 -19 -31 -39 -34 -26 -4 -26 -4 7 -6 19 0 40 -6
47 -13 9 -9 16 -7 31 6 11 10 41 21 66 23 25 3 45 9 45 13 0 18 -53 40 -97 40
-44 0 -50 -2 -60 -29z"/>
<path d="M10792 3483 c-18 -81 -18 -112 3 -127 10 -7 19 -23 20 -37 4 -38 4
-39 15 -39 6 0 10 7 10 16 0 13 7 15 32 10 17 -3 39 -13 48 -21 23 -21 32 -19
28 8 -2 16 -13 24 -43 32 -22 6 -46 14 -52 18 -15 10 -17 71 -4 96 14 26 -7
101 -28 101 -12 0 -20 -16 -29 -57z"/>
<path d="M10966 3228 c33 -40 54 -49 54 -25 0 19 -33 47 -55 47 -17 0 -17 -1
1 -22z"/>
<path d="M2761 3216 c-6 -7 -33 -21 -59 -31 -60 -23 -69 -30 -77 -63 -8 -34
-43 -72 -65 -72 -10 0 -29 9 -43 20 -14 11 -31 20 -38 20 -8 0 -3 -7 9 -16 12
-8 22 -23 22 -32 0 -9 7 -26 15 -36 10 -14 15 -45 15 -98 0 -82 -15 -130 -45
-141 -8 -4 -15 -13 -15 -22 0 -9 -11 -26 -24 -39 -14 -12 -34 -46 -46 -75
l-20 -53 20 -33 20 -33 -26 -31 c-25 -30 -26 -34 -14 -77 7 -25 21 -50 30 -57
9 -7 30 -37 45 -67 15 -30 45 -80 65 -110 21 -30 58 -95 83 -145 45 -89 46
-91 156 -169 98 -71 111 -83 117 -115 3 -20 10 -54 16 -76 5 -22 11 -123 14
-225 3 -119 10 -210 21 -256 14 -60 15 -90 6 -195 -9 -113 -9 -127 8 -161 11
-21 19 -51 19 -68 0 -17 5 -51 11 -76 10 -40 13 -43 25 -27 17 24 29 10 41
-47 11 -50 7 -70 -11 -70 -8 0 -13 -16 -13 -47 0 -37 5 -51 25 -68 21 -18 23
-25 14 -42 -10 -17 -4 -31 39 -94 62 -90 132 -165 179 -189 57 -29 178 -55
208 -44 35 12 30 26 -16 42 -43 15 -116 82 -133 124 -9 23 -9 34 1 53 7 14 11
28 7 31 -3 3 1 24 10 45 15 39 15 39 -16 65 -35 29 -43 82 -16 104 8 7 15 27
15 44 0 17 4 37 9 45 7 10 1 23 -21 43 -38 35 -34 63 9 64 52 2 65 11 59 41
-9 42 6 55 71 64 41 6 63 14 75 30 20 23 24 84 8 94 -17 11 -62 86 -55 93 3 3
20 0 38 -7 67 -28 91 -26 123 11 17 19 41 66 53 106 18 54 28 72 41 72 31 0
60 76 60 158 l0 71 64 46 c35 25 83 52 107 60 69 24 87 35 112 74 28 43 57
181 64 306 5 86 7 93 48 150 23 33 58 95 78 138 35 76 36 78 21 121 -11 32
-22 46 -40 50 -14 4 -44 23 -67 44 -87 77 -82 74 -169 78 -46 3 -93 4 -105 4
-17 0 -23 6 -23 23 0 30 -104 85 -126 66 -16 -13 -44 -5 -44 14 0 7 -14 23
-30 36 -23 17 -29 27 -25 43 5 13 0 26 -13 38 -11 11 -23 37 -27 59 -5 31 -17
50 -52 81 -40 35 -52 40 -95 40 -58 0 -163 48 -173 80 -3 10 -21 29 -38 42
-18 12 -46 35 -64 52 -62 61 -73 67 -96 60 -12 -3 -27 -10 -33 -15 -7 -6 -26
-3 -47 6 -20 8 -54 15 -75 15 -25 0 -52 9 -75 24 l-35 24 -26 -27 c-14 -15
-26 -36 -26 -47 0 -26 -8 -34 -27 -27 -11 4 -13 15 -7 47 3 22 10 49 16 59 11
20 -4 23 -21 3z"/>
<path d="M10890 3185 c0 -8 9 -23 20 -32 11 -10 20 -23 20 -30 0 -14 36 -18
44 -4 9 14 -18 59 -42 71 -31 14 -42 13 -42 -5z"/>
<path d="M11033 3120 c8 -31 -17 -60 -53 -60 -15 0 -35 -9 -46 -21 -19 -21
-19 -21 6 -19 42 4 50 1 50 -19 0 -11 11 -33 25 -48 l24 -28 1 28 c0 15 6 30
14 33 22 9 16 119 -8 142 -18 16 -18 16 -13 -8z"/>
<path d="M9131 3058 c1 -24 4 -54 8 -68 10 -35 43 -33 56 3 8 23 5 36 -12 65
-31 55 -53 55 -52 0z"/>
<path d="M10671 2947 c-11 -18 -41 -48 -66 -66 -25 -18 -49 -40 -55 -50 -5
-10 -23 -24 -39 -31 -17 -7 -39 -27 -50 -46 -16 -26 -27 -34 -50 -34 -45 0
-56 -52 -21 -105 11 -16 20 -47 20 -67 0 -43 11 -52 61 -49 21 1 54 -5 75 -14
20 -8 47 -15 59 -15 45 0 55 10 55 54 0 32 6 48 25 66 14 13 25 35 25 49 0 30
8 44 33 57 17 10 17 12 -3 36 -27 35 -25 76 5 120 14 20 25 43 25 51 0 13 -63
77 -75 77 -2 0 -13 -15 -24 -33z"/>
<path d="M9780 2896 c0 -2 15 -14 34 -25 18 -12 39 -35 46 -52 7 -16 25 -36
40 -44 33 -17 113 -166 124 -230 6 -31 20 -52 64 -94 31 -29 65 -57 77 -61 29
-11 55 16 55 57 0 19 5 43 10 54 8 15 7 19 -3 19 -8 0 -23 12 -32 27 -10 15
-31 38 -47 51 -18 15 -27 30 -23 41 6 19 -25 51 -97 100 -26 17 -56 45 -68 61
-26 37 -180 119 -180 96z"/>
<path d="M11010 2710 c-8 -6 -37 -10 -65 -10 -48 -1 -49 -1 -25 -15 35 -20 64
-18 91 4 25 20 24 37 -1 21z"/>
<path d="M10835 2700 c-8 -13 5 -13 25 0 13 8 13 10 -2 10 -9 0 -20 -4 -23
-10z"/>
<path d="M10815 2619 c-26 -73 -31 -96 -24 -114 4 -11 8 -41 8 -67 1 -50 10
-59 31 -33 8 10 10 31 5 64 -4 33 -3 51 5 56 17 10 31 -7 50 -62 18 -54 50
-72 50 -30 0 14 -8 40 -17 59 -9 18 -21 41 -26 52 -7 15 -3 24 20 42 21 18 24
23 11 24 -9 0 -29 -5 -44 -12 -23 -11 -28 -10 -45 11 -14 17 -20 19 -24 10z"/>
<path d="M11284 2608 c-4 -7 0 -16 10 -22 45 -27 65 -48 68 -73 4 -31 9 -34
111 -64 53 -15 85 -31 98 -47 25 -32 35 -88 19 -107 -10 -12 -10 -15 3 -15 8
0 39 -11 69 -25 70 -33 83 -32 129 10 22 19 47 35 57 35 22 -1 53 -26 80 -67
20 -28 107 -71 120 -58 2 2 -18 26 -46 53 -51 50 -76 102 -54 110 24 8 11 33
-22 47 -19 8 -41 27 -48 42 -15 31 -137 101 -235 133 -69 24 -79 21 -127 -29
-17 -17 -37 -31 -47 -31 -23 0 -73 69 -71 97 2 21 -2 23 -53 23 -31 0 -57 -5
-61 -12z"/>
<path d="M10240 2358 l-25 -10 29 -9 c16 -4 39 -17 51 -29 16 -15 53 -26 137
-40 63 -11 127 -24 142 -29 19 -8 37 -7 68 4 28 9 47 11 59 4 10 -5 37 -9 61
-8 l43 1 -50 14 c-27 8 -67 12 -88 9 -21 -3 -61 2 -93 11 -46 13 -54 19 -49
35 5 16 1 19 -25 19 -17 0 -40 5 -51 11 -16 8 -25 7 -38 -5 -26 -23 -69 -19
-103 9 -33 28 -33 28 -68 13z"/>
<path d="M10881 2256 c-20 -11 -21 -14 -6 -19 19 -8 65 1 65 13 0 4 -7 11 -16
14 -19 7 -14 8 -43 -8z"/>
<path d="M11035 2259 c-11 -17 0 -20 21 -4 17 13 17 14 2 15 -9 0 -20 -5 -23
-11z"/>
<path d="M11312 2112 c8 -28 -2 -39 -42 -49 -28 -7 -40 -18 -57 -53 -30 -61
-39 -70 -72 -70 -20 0 -34 8 -45 26 -22 32 -58 29 -66 -6 -3 -14 -14 -27 -25
-29 -10 -2 -35 -20 -54 -41 -20 -21 -47 -40 -60 -42 -18 -2 -27 -12 -33 -33
-14 -56 -66 -93 -186 -135 -61 -21 -124 -47 -139 -57 -15 -11 -36 -23 -45 -26
-11 -4 -18 -17 -18 -32 0 -15 -5 -36 -12 -48 -6 -12 -11 -36 -10 -54 2 -20 -3
-35 -13 -41 -13 -7 -14 -14 -5 -37 6 -16 13 -74 15 -129 3 -81 0 -109 -17
-153 -10 -29 -27 -57 -36 -63 -15 -9 -15 -12 7 -30 32 -27 58 -25 124 10 46
24 69 30 121 30 36 0 68 5 71 10 24 40 250 105 327 94 74 -9 165 -88 143 -123
-12 -20 13 -20 31 0 17 19 65 49 78 49 2 0 4 -15 4 -32 -1 -65 10 -166 21
-186 10 -19 65 -42 101 -42 9 0 25 7 37 15 21 14 23 14 35 -5 17 -27 27 -25
74 10 24 18 51 30 71 30 29 0 42 12 122 108 49 59 103 117 119 129 45 33 101
136 128 233 30 106 30 117 0 161 -14 20 -28 48 -32 63 -3 15 -15 31 -25 37
-11 6 -21 25 -25 49 -4 24 -20 55 -41 80 -37 43 -63 112 -63 167 0 44 -16 73
-39 73 -15 0 -21 10 -26 53 -4 28 -12 63 -17 77 -8 22 -10 23 -19 8 -6 -10
-16 -56 -24 -103 -16 -100 -59 -188 -94 -193 -29 -5 -65 21 -131 91 l-54 58
19 32 c10 18 27 42 38 55 26 29 11 50 -23 32 -27 -15 -56 -8 -105 25 -34 24
-37 24 -33 7z"/>
<path d="M7794 1994 c-38 -53 -59 -72 -101 -91 -67 -31 -89 -66 -73 -121 15
-56 12 -85 -14 -133 -12 -25 -25 -68 -28 -98 -5 -46 -2 -57 19 -82 30 -36 72
-38 107 -6 24 21 73 164 97 282 4 22 15 57 23 77 9 21 16 49 16 63 0 14 7 28
15 31 24 10 19 144 -6 144 -4 0 -29 -30 -55 -66z"/>
<path d="M12666 974 c-3 -9 -6 -32 -6 -52 0 -38 -33 -122 -47 -122 -4 0 -14
-4 -21 -9 -11 -7 -12 -12 -1 -29 11 -18 10 -24 -5 -41 -11 -12 -14 -21 -7 -21
21 0 88 50 99 75 7 14 20 25 30 25 10 0 29 12 43 26 24 26 24 26 2 20 -30 -10
-72 55 -66 100 5 34 -11 55 -21 28z"/>
<path d="M11385 656 c-8 -27 -15 -51 -15 -53 0 -12 62 1 84 18 21 17 56 67 56
81 0 2 -25 3 -55 4 l-55 1 -15 -51z"/>
<path d="M12485 701 c-17 -3 -48 -19 -70 -34 -22 -15 -78 -50 -125 -76 -47
-26 -112 -65 -145 -86 -55 -35 -58 -39 -38 -48 33 -15 65 -2 145 58 40 30 81
55 91 55 10 0 28 11 40 23 20 22 78 63 129 93 25 15 12 22 -27 15z"/>
</g>
</svg>
